<svg xmlns="http://www.w3.org/2000/svg" width="762" height="453.693" viewBox="0 0 762 453.693">
  <g id="undraw_business_shop_qw5t" transform="translate(0 -160.229)">
    <ellipse id="Ellipse_55" data-name="Ellipse 55" cx="376.475" cy="29.412" rx="376.475" ry="29.412" transform="translate(9.05 555.098)" fill="#3f3d56"/>
    <path id="Path_489" data-name="Path 489" d="M750.87,274.947s2.352,31.757,2.352,32.933-16.467,82.333-16.467,82.333-23.524,44.695,0,43.519,16.467-42.343,16.467-42.343l24.7-68.219-10.586-48.224Z" transform="translate(-161.993 -100.283)" fill="#a0616a"/>
    <rect id="Rectangle_41" data-name="Rectangle 41" width="467.393" height="328.328" transform="translate(132.281 255.96)" fill="#f2f2f2"/>
    <rect id="Rectangle_42" data-name="Rectangle 42" width="117.357" height="204.866" transform="translate(171.626 381.232)" fill="#3f3d56"/>
    <rect id="Rectangle_43" data-name="Rectangle 43" width="31.613" height="29.47" transform="translate(193.334 393.522)" fill="#f2f2f2"/>
    <rect id="Rectangle_44" data-name="Rectangle 44" width="31.613" height="29.47" transform="translate(235.663 393.522)" fill="#f2f2f2"/>
    <rect id="Rectangle_45" data-name="Rectangle 45" width="31.613" height="30.541" transform="translate(193.334 433.708)" fill="#f2f2f2"/>
    <rect id="Rectangle_46" data-name="Rectangle 46" width="31.613" height="30.541" transform="translate(235.663 433.708)" fill="#f2f2f2"/>
    <circle id="Ellipse_57" data-name="Ellipse 57" cx="7.462" cy="7.462" r="7.462" transform="translate(266.597 489.995)" fill="#dd4cbb"/>
    <rect id="Rectangle_47" data-name="Rectangle 47" width="232" height="194.69" transform="translate(328.328 361.784)" fill="#3f3d56"/>
    <path id="Path_498" data-name="Path 498" d="M648.516,317.772H83.439L121.115,239l8.432-17.637L140.578,198.3l8.432-17.637,9.775-20.432H604l5.773,20.432,4.986,17.637,6.52,23.065L626.259,239Z" fill="#3f3d56"/>
    <rect id="Rectangle_48" data-name="Rectangle 48" width="8.14" height="50.199" transform="translate(336.469 442.51)" fill="#dd4cbb"/>
    <rect id="Rectangle_49" data-name="Rectangle 49" width="8.14" height="6.105" transform="translate(336.469 449.972)" fill="#f2f2f2"/>
    <rect id="Rectangle_50" data-name="Rectangle 50" width="8.14" height="6.105" transform="translate(336.469 479.141)" fill="#f2f2f2"/>
    <rect id="Rectangle_51" data-name="Rectangle 51" width="19.673" height="50.199" transform="translate(348.679 442.51)" fill="#dd4cbb"/>
    <rect id="Rectangle_52" data-name="Rectangle 52" width="19.673" height="6.105" transform="translate(348.679 449.972)" fill="#f2f2f2"/>
    <rect id="Rectangle_53" data-name="Rectangle 53" width="19.673" height="6.105" transform="translate(348.679 479.141)" fill="#f2f2f2"/>
    <rect id="Rectangle_54" data-name="Rectangle 54" width="8.14" height="50.199" transform="translate(373.1 442.51)" fill="#dd4cbb"/>
    <rect id="Rectangle_55" data-name="Rectangle 55" width="8.14" height="6.105" transform="translate(373.1 449.972)" fill="#f2f2f2"/>
    <rect id="Rectangle_56" data-name="Rectangle 56" width="8.14" height="6.105" transform="translate(373.1 479.141)" fill="#f2f2f2"/>
    <rect id="Rectangle_57" data-name="Rectangle 57" width="8.14" height="50.199" transform="translate(385.311 442.51)" fill="#dd4cbb"/>
    <rect id="Rectangle_58" data-name="Rectangle 58" width="8.14" height="6.105" transform="translate(385.311 449.972)" fill="#f2f2f2"/>
    <rect id="Rectangle_59" data-name="Rectangle 59" width="8.14" height="6.105" transform="translate(385.311 479.141)" fill="#f2f2f2"/>
    <rect id="Rectangle_60" data-name="Rectangle 60" width="8.14" height="50.199" transform="translate(393.683 445.558) rotate(-20.654)" fill="#dd4cbb"/>
    <rect id="Rectangle_61" data-name="Rectangle 61" width="8.14" height="6.105" transform="translate(396.315 452.54) rotate(-20.654)" fill="#f2f2f2"/>
    <rect id="Rectangle_62" data-name="Rectangle 62" width="8.14" height="6.105" transform="translate(406.604 479.835) rotate(-20.654)" fill="#f2f2f2"/>
    <rect id="Rectangle_63" data-name="Rectangle 63" width="19.673" height="50.199" transform="translate(533.194 442.51)" fill="#dd4cbb"/>
    <rect id="Rectangle_64" data-name="Rectangle 64" width="19.673" height="6.105" transform="translate(533.194 449.972)" fill="#f2f2f2"/>
    <rect id="Rectangle_65" data-name="Rectangle 65" width="19.673" height="6.105" transform="translate(533.194 479.141)" fill="#f2f2f2"/>
    <rect id="Rectangle_66" data-name="Rectangle 66" width="8.14" height="50.199" transform="translate(520.305 442.51)" fill="#dd4cbb"/>
    <rect id="Rectangle_67" data-name="Rectangle 67" width="8.14" height="6.105" transform="translate(520.305 449.972)" fill="#f2f2f2"/>
    <rect id="Rectangle_68" data-name="Rectangle 68" width="8.14" height="6.105" transform="translate(520.305 479.141)" fill="#f2f2f2"/>
    <rect id="Rectangle_69" data-name="Rectangle 69" width="8.14" height="50.199" transform="translate(508.095 442.51)" fill="#dd4cbb"/>
    <rect id="Rectangle_70" data-name="Rectangle 70" width="8.14" height="6.105" transform="translate(508.095 449.972)" fill="#f2f2f2"/>
    <rect id="Rectangle_71" data-name="Rectangle 71" width="8.14" height="6.105" transform="translate(508.095 479.141)" fill="#f2f2f2"/>
    <rect id="Rectangle_72" data-name="Rectangle 72" width="50.199" height="8.14" transform="translate(482.549 489.66) rotate(-69.346)" fill="#dd4cbb"/>
    <rect id="Rectangle_73" data-name="Rectangle 73" width="6.105" height="8.14" transform="translate(495.47 455.383) rotate(-69.346)" fill="#f2f2f2"/>
    <rect id="Rectangle_74" data-name="Rectangle 74" width="6.105" height="8.14" transform="translate(485.181 482.678) rotate(-69.346)" fill="#f2f2f2"/>
    <rect id="Rectangle_75" data-name="Rectangle 75" width="232" height="4.749" transform="translate(328.328 492.709)" fill="#f2f2f2"/>
    <rect id="Rectangle_76" data-name="Rectangle 76" width="42.737" height="50.199" transform="translate(429.405 442.51)" fill="#dd4cbb"/>
    <rect id="Rectangle_77" data-name="Rectangle 77" width="21.708" height="9.497" transform="translate(439.919 453.363)" fill="#f2f2f2"/>
    <rect id="Rectangle_78" data-name="Rectangle 78" width="4.07" height="43.415" transform="translate(442.294 361.784)" fill="#f2f2f2"/>
    <circle id="Ellipse_58" data-name="Ellipse 58" cx="6.784" cy="6.784" r="6.784" transform="translate(437.545 398.416)" fill="#f2f2f2"/>
    <path id="Path_499" data-name="Path 499" d="M614.754,198.3H140.578l8.432-17.637H609.768Z" fill="#dd4cbb"/>
    <path id="Path_500" data-name="Path 500" d="M626.259,239H121.115l8.432-17.637H621.273Z" fill="#dd4cbb"/>
    <circle id="Ellipse_59" data-name="Ellipse 59" cx="90.499" cy="90.499" r="90.499" transform="translate(0 259.167)" fill="#dd4cbb"/>
    <circle id="Ellipse_60" data-name="Ellipse 60" cx="77.829" cy="77.829" r="77.829" transform="translate(12.67 271.837)" opacity="0.1"/>
    <path id="Path_503" data-name="Path 503" d="M248.762,495.876V484.548c-5.726-.112-11.65-2.131-15.105-4.935l2.369-7.514a24.146,24.146,0,0,0,14.217,4.822c7.01,0,11.749-4.6,11.749-10.991,0-6.169-3.851-9.982-11.156-13.347-10.07-4.486-16.29-9.646-16.29-19.4,0-9.309,5.825-16.375,14.908-18.057V403.795h6.121v10.879a24.021,24.021,0,0,1,12.835,3.925l-2.469,7.4a21.816,21.816,0,0,0-12.44-3.814c-7.6,0-10.465,5.159-10.465,9.646,0,5.832,3.653,8.748,12.242,12.786,10.169,4.711,15.3,10.543,15.3,20.524,0,8.86-5.43,17.16-15.6,19.066v11.665Z" transform="translate(-161.993 -100.283)" fill="#f2f2f2"/>
  </g>
</svg>
