<svg xmlns="http://www.w3.org/2000/svg" width="762" height="636.225" viewBox="0 0 762 636.225">
  <g id="undraw_newspaper_k72w" transform="translate(0 0.04)">
    <path id="Path_611" data-name="Path 611" d="M810.161,712.046H347.621l.209-49.041c.528-124.09,99.574-226.339,223.646-228.45q2.011-.034,4.028-.034h0a233.975,233.975,0,0,1,81.781,14.693C745.077,481.909,804,564.976,807.922,658.576Z" transform="translate(-191.215 -111.069)" fill="#dd4cbb"/>
    <rect id="Rectangle_95" data-name="Rectangle 95" width="762" height="1.907" transform="translate(0 600.976)" fill="#2f2e41"/>
    <path id="Path_612" data-name="Path 612" d="M379.843,381.634l20.38,14.823L420.6,570.623h48.173L452.1,372.37l-66.7-25.939Z" fill="#2f2e41"/>
    <path id="Path_613" data-name="Path 613" d="M485.828,437.119s-5.558,63,16.675,64.849,107.464-18.528,107.464-18.528l40.762,144.52,61.143-31.5s-37.056-163.048-59.29-172.312-96.347-27.792-96.347-27.792L502.5,405.621Z" transform="translate(-191.215 -111.069)" fill="#2f2e41"/>
    <path id="Path_614" data-name="Path 614" d="M619.231,677.986s-11.117,42.615-3.706,46.321a134.027,134.027,0,0,1,12.97,7.411v-7.411s9.264,9.264,9.264,16.675,50.026,9.264,50.026,0-1.853-20.381-11.117-25.939-20.381-37.056-20.381-37.056Z" transform="translate(-191.215 -111.069)" fill="#2f2e41"/>
    <path id="Path_615" data-name="Path 615" d="M481.748,490.951l3.705,35.2,12.97,22.233,31.5-35.2-24.086-38.909Z" fill="#2f2e41"/>
    <path id="Path_616" data-name="Path 616" d="M702.608,637.224s6.823-23.328,13.6-20.928,32.719,26.486,32.719,26.486L767.457,653.9s37.056,3.706,25.939,14.823-51.879,25.939-70.407,18.528-22.234-9.264-22.234-9.264l-5.558,3.706-22.234-5.558,3.706-38.909S682.227,653.9,702.608,637.224Z" transform="translate(-191.215 -111.069)" fill="#2f2e41"/>
    <circle id="Ellipse_86" data-name="Ellipse 86" cx="42.615" cy="42.615" r="42.615" transform="translate(314.994 9.218)" fill="#9f616a"/>
    <path id="Path_617" data-name="Path 617" d="M521.958,187.915s3.706,38.909-7.411,38.909S516.4,275,546.045,275s40.762-57.437,40.762-57.437-20.381-7.411-16.675-31.5S521.958,187.915,521.958,187.915Z" transform="translate(-191.215 -111.069)" fill="#9f616a"/>
    <path id="Path_618" data-name="Path 618" d="M519.006,223.856l-15.576,6.674-42.272,17.884a8.583,8.583,0,0,0-5.185,8.864l15.959,141.858s-16.675,35.2,9.264,37.056l3.706,12.97,29.645-35.2,111.169-3.706,1.853-179.724-50.866-20.1S569.785,248.68,519.006,223.856Z" transform="translate(-191.215 -111.069)" fill="#3f3d56"/>
    <path id="Path_619" data-name="Path 619" d="M467.3,253.69l-6.847-1.956a5.645,5.645,0,0,0-7.125,4.539l-18.17,113.973a39.58,39.58,0,0,0,3.867,24.717c5.614,10.63,17.274,20.27,41.245,8.806l16.675-120.433Z" transform="translate(-191.215 -111.069)" fill="#3f3d56"/>
    <path id="Path_620" data-name="Path 620" d="M606.262,227.75l22.234,3.706,61.143,85.23,5.558,14.823,35.2-11.117s-1.853,16.675,16.675,14.823c0,0-22.234,61.143-68.554,42.615s-61.143-74.113-61.143-74.113Z" transform="translate(-191.215 -111.069)" fill="#3f3d56"/>
    <path id="Path_621" data-name="Path 621" d="M440.986,153.738l-83.377-33.352L353.9,131.5l38.909,33.351Z" fill="#ccc"/>
    <path id="Path_622" data-name="Path 622" d="M523.167,165.618c1.574-.42,1.805-2.51,1.858-4.138.282-8.719,5.533-17.666,13.879-20.2a23.333,23.333,0,0,1,9.835-.541,37.255,37.255,0,0,1,13.32,4.444c2.174,1.222,4.306,2.694,6.772,3.067,1.628.247,8.679,2.3,10.3,2.585,3.565.634,6.878,3.824,10.3,2.637,3.273-1.136,4-5.373,4.076-8.836.18-7.89-5.809-18.81-11.085-24.68-4-4.454-10.032-6.51-15.925-7.58A106.02,106.02,0,0,0,545.67,111.1c-9.431.168-19.123.9-27.627,4.977s-15.647,12.2-16.054,21.625c-.085,1.963.118,3.934-.047,5.892-.4,4.776-2.939,9.09-4.129,13.733a25.13,25.13,0,0,0,3.509,20.082c3.156,4.645,15.777,8.861,15.594,14.473,2.281-2.363-3.1-4.742-.817-7.105a5.62,5.62,0,0,0,1.671-6.866l-2.422-9.448c-.444-1.73-.88-3.6-.21-5.258C517.735,156.794,520.542,166.319,523.167,165.618Z" transform="translate(-191.215 -111.069)" fill="#2f2e41"/>
    <path id="Path_623" data-name="Path 623" d="M353.9,131.5,318.7,268.612l137.109,48.174,79.671-66.7,50.026-150.078L503.981,159.3Z" fill="#f2f2f2"/>
    <rect id="Rectangle_96" data-name="Rectangle 96" width="1.853" height="137.97" transform="matrix(0.255, -0.967, 0.967, 0.255, 360.149, 148.148)" fill="#e6e6e6"/>
    <rect id="Rectangle_97" data-name="Rectangle 97" width="1.853" height="137.97" transform="matrix(0.255, -0.967, 0.967, 0.255, 356.444, 157.412)" fill="#e6e6e6"/>
    <rect id="Rectangle_98" data-name="Rectangle 98" width="1.853" height="137.97" transform="matrix(0.255, -0.967, 0.967, 0.255, 354.591, 166.676)" fill="#e6e6e6"/>
    <rect id="Rectangle_99" data-name="Rectangle 99" width="1.853" height="137.97" transform="matrix(0.255, -0.967, 0.967, 0.255, 352.738, 175.94)" fill="#e6e6e6"/>
    <rect id="Rectangle_100" data-name="Rectangle 100" width="1.853" height="137.97" transform="matrix(0.255, -0.967, 0.967, 0.255, 350.885, 185.204)" fill="#e6e6e6"/>
    <rect id="Rectangle_101" data-name="Rectangle 101" width="1.853" height="137.97" transform="matrix(0.255, -0.967, 0.967, 0.255, 349.032, 194.468)" fill="#e6e6e6"/>
    <rect id="Rectangle_102" data-name="Rectangle 102" width="1.853" height="137.97" transform="matrix(0.255, -0.967, 0.967, 0.255, 347.179, 203.732)" fill="#e6e6e6"/>
    <rect id="Rectangle_103" data-name="Rectangle 103" width="1.853" height="137.97" transform="matrix(0.255, -0.967, 0.967, 0.255, 345.327, 212.996)" fill="#e6e6e6"/>
    <rect id="Rectangle_104" data-name="Rectangle 104" width="1.853" height="137.97" transform="matrix(0.255, -0.967, 0.967, 0.255, 343.474, 222.26)" fill="#e6e6e6"/>
    <path id="Path_624" data-name="Path 624" d="M488.625,343.429s41.671-24.89,60.2-8.215-53.732,40.762-53.732,40.762Z" transform="translate(-191.215 -111.069)" fill="#9f616a"/>
    <path id="Path_625" data-name="Path 625" d="M443.213,355.595l53.732-20.381s-9.264,35.2,9.264,37.056l-25.94,31.5S428.391,403.768,443.213,355.595Z" transform="translate(-191.215 -111.069)" fill="#3f3d56"/>
    <path id="Path_626" data-name="Path 626" d="M393.392,243.766l71.3,24.03-16.874,36.78-71.3-24.029Z" fill="#e6e6e6"/>
    <path id="Path_627" data-name="Path 627" d="M519.731,165.781l53.732-40.763L558.64,175.045l-55.585,40.762Z" fill="#ccc"/>
    <rect id="Rectangle_105" data-name="Rectangle 105" width="67.444" height="1.853" transform="matrix(0.797, -0.604, 0.604, 0.797, 493.234, 233.594)" fill="#e6e6e6"/>
    <rect id="Rectangle_106" data-name="Rectangle 106" width="67.444" height="1.853" transform="matrix(0.797, -0.604, 0.604, 0.797, 489.528, 253.975)" fill="#e6e6e6"/>
    <path id="Path_628" data-name="Path 628" d="M741.518,337.067s46.32-27.792,16.675-38.909-29.645,31.5-29.645,31.5S726.695,338.919,741.518,337.067Z" transform="translate(-191.215 -111.069)" fill="#9f616a"/>
    <path id="Path_629" data-name="Path 629" d="M278.864,163.928l-1.853,72.26,28.719-8.2-23.16.784Z" opacity="0.1"/>
    <rect id="Rectangle_107" data-name="Rectangle 107" width="28.611" height="28.611" transform="translate(597.011 361.6)" fill="#f2f2f2"/>
    <rect id="Rectangle_108" data-name="Rectangle 108" width="28.611" height="28.611" transform="translate(482.568 37.344)" fill="#f2f2f2"/>
    <circle id="Ellipse_87" data-name="Ellipse 87" cx="14.305" cy="14.305" r="14.305" transform="translate(137.332 298.656)" fill="#f2f2f2"/>
  </g>
</svg>
