<svg xmlns="http://www.w3.org/2000/svg" width="705.27" height="351.78" viewBox="0 0 705.27 351.78">
  <g id="undraw_dark_analytics_7axy" transform="translate(-0.021 -128.117)">
    <path id="Path_509" data-name="Path 509" d="M650.64,458.254l-3.821-4.409A57.619,57.619,0,0,1,650.64,458.254Z" transform="translate(-10.788 -60.655)" fill="#444053"/>
    <path id="Path_512" data-name="Path 512" d="M716.078,428.026" transform="translate(-10.788 -60.655)" fill="none" stroke="#444053" stroke-miterlimit="10" stroke-width="0.668"/>
    <path id="Path_527" data-name="Path 527" d="M658.817,390.785s0,18.871-5.137,20.207" transform="translate(-10.788 -60.655)" fill="none" stroke="#444053" stroke-miterlimit="10" stroke-width="0.668"/>
    <path id="Path_528" data-name="Path 528" d="M616.819,415.207s20.4,1.743,29.813-8.784" transform="translate(-10.788 -60.655)" fill="none" stroke="#444053" stroke-miterlimit="10" stroke-width="0.668"/>
    <path id="Path_529" data-name="Path 529" d="M653.553,368.46S648.636,387.605,635,392.789" transform="translate(-10.788 -60.655)" fill="none" stroke="#444053" stroke-miterlimit="10" stroke-width="0.668"/>
    <path id="Path_530" data-name="Path 530" d="M604.548,395.047s14.449,5.017,26.867-7.769" transform="translate(-10.788 -60.655)" fill="none" stroke="#444053" stroke-miterlimit="10" stroke-width="0.668"/>
    <path id="Path_531" data-name="Path 531" d="M637.494,352.04s-1.336,16.259-10.2,23.861" transform="translate(-10.788 -60.655)" fill="none" stroke="#444053" stroke-miterlimit="10" stroke-width="0.668"/>
    <path id="Path_532" data-name="Path 532" d="M605.129,370.277s11.984.08,14.79-3.828" transform="translate(-10.788 -60.655)" fill="none" stroke="#444053" stroke-miterlimit="10" stroke-width="0.668"/>
    <path id="Path_533" data-name="Path 533" d="M667.24,203.075V525.582a14.963,14.963,0,0,1-14.957,14.97H131.6a14.957,14.957,0,0,1-14.89-13.594,13.366,13.366,0,0,1-.067-1.376V203.075a8.941,8.941,0,0,1,.033-.962H667.193C667.214,202.407,667.24,202.734,667.24,203.075Z" transform="translate(-10.788 -60.655)" fill="#4c4c78"/>
    <path id="Path_534" data-name="Path 534" d="M652.284,188.773H131.6a14.957,14.957,0,0,0-12.959,7.482,14.789,14.789,0,0,0-1.964,6.52H667.193A14.957,14.957,0,0,0,652.284,188.773Z" transform="translate(-10.788 -60.655)" fill="#dd4cbb"/>
    <circle id="Ellipse_61" data-name="Ellipse 61" cx="3.741" cy="3.741" r="3.741" transform="translate(117.035 131.858)" fill="#ededf4"/>
    <circle id="Ellipse_62" data-name="Ellipse 62" cx="3.741" cy="3.741" r="3.741" transform="translate(128.251 131.858)" fill="#ededf4"/>
    <circle id="Ellipse_63" data-name="Ellipse 63" cx="3.741" cy="3.741" r="3.741" transform="translate(139.473 131.858)" fill="#ededf4"/>
    <rect id="Rectangle_79" data-name="Rectangle 79" width="77.689" height="7.154" transform="translate(125.151 154.043)" fill="#dd4cbb"/>
    <rect id="Rectangle_80" data-name="Rectangle 80" width="77.689" height="7.154" transform="translate(125.151 188.933)" fill="#dd4cbb" opacity="0.5"/>
    <rect id="Rectangle_81" data-name="Rectangle 81" width="77.689" height="7.154" transform="translate(125.151 213.589)" fill="#dd4cbb" opacity="0.5"/>
    <rect id="Rectangle_82" data-name="Rectangle 82" width="77.689" height="7.154" transform="translate(125.151 238.252)" fill="#dd4cbb" opacity="0.5"/>
    <rect id="Rectangle_83" data-name="Rectangle 83" width="77.689" height="7.154" transform="translate(125.151 262.915)" fill="#dd4cbb" opacity="0.5"/>
    <rect id="Rectangle_84" data-name="Rectangle 84" width="77.689" height="7.154" transform="translate(125.151 287.578)" fill="#dd4cbb" opacity="0.5"/>
    <rect id="Rectangle_85" data-name="Rectangle 85" width="77.689" height="7.154" transform="translate(125.151 312.241)" fill="#dd4cbb" opacity="0.5"/>
    <rect id="Rectangle_86" data-name="Rectangle 86" width="77.689" height="7.154" transform="translate(125.151 336.903)" fill="#dd4cbb" opacity="0.5"/>
    <rect id="Rectangle_87" data-name="Rectangle 87" width="344.251" height="1.149" transform="translate(285.787 180.349)" fill="#dce0ed" opacity="0.5"/>
    <rect id="Rectangle_88" data-name="Rectangle 88" width="344.251" height="1.149" transform="translate(285.787 207.056)" fill="#dce0ed" opacity="0.5"/>
    <rect id="Rectangle_89" data-name="Rectangle 89" width="344.251" height="1.149" transform="translate(285.787 233.763)" fill="#dce0ed" opacity="0.5"/>
    <rect id="Rectangle_90" data-name="Rectangle 90" width="344.251" height="1.149" transform="translate(285.787 260.47)" fill="#dce0ed" opacity="0.5"/>
    <rect id="Rectangle_91" data-name="Rectangle 91" width="344.251" height="1.149" transform="translate(285.787 287.177)" fill="#dce0ed" opacity="0.5"/>
    <path id="Path_535" data-name="Path 535" d="M630.039,288.312H285.36V235.794l31.617,15.578,32.712,4.436,28.7-8.651,34.63-26.861,17.422-10.06,12.732-2.452,12.184.655,20.04,9.893,27.235,17.348,21.37,2.752,16.954-5.845,35.919-29.426,18.344-6.533,19.192,2.966,15.625,9.025Z" fill="#dd4cbb" opacity="0.5"/>
    <path id="Path_536" data-name="Path 536" d="M356.229,316.482c-31.042,0-59.72-18.985-60.081-19.225l.855-1.276c.441.294,44.6,29.506,82.1,14.87,13.674-5.344,23.42-13.627,32.839-21.657,9.833-8.377,19.125-16.293,31.784-19.726a47.55,47.55,0,0,1,42.459,9.539c10.307,8.47,30.842,22.044,52.525,18.036,11.062-2.077,20.381-10.154,30.247-18.7,18.885-16.42,38.471-33.367,72.325-9.052l-.908,1.256c-32.853-23.614-51.951-7.068-70.415,8.938-10.02,8.684-19.5,16.894-30.962,19.045-22.312,4.188-43.274-9.686-53.788-18.33a46.013,46.013,0,0,0-41.076-9.239c-12.331,3.34-21.5,11.149-31.2,19.412-9.519,8.11-19.372,16.493-33.273,21.917a64.128,64.128,0,0,1-23.44,4.2Z" transform="translate(-10.788 -60.655)" fill="#dd4cbb"/>
    <circle id="Ellipse_64" data-name="Ellipse 64" cx="8.53" cy="8.53" r="8.53" transform="translate(442.903 199.1)" fill="#dd4cbb"/>
    <g id="Group_36" data-name="Group 36" opacity="0.5">
      <rect id="Rectangle_92" data-name="Rectangle 92" width="50.602" height="10.735" transform="translate(316.208 348.146)" fill="#dce0ed"/>
      <rect id="Rectangle_93" data-name="Rectangle 93" width="50.602" height="10.735" transform="translate(432.402 348.146)" fill="#dce0ed"/>
      <rect id="Rectangle_94" data-name="Rectangle 94" width="50.602" height="10.735" transform="translate(548.589 348.146)" fill="#dce0ed"/>
    </g>
    <path id="Path_537" data-name="Path 537" d="M323.416,483.765c0-15.672,12.752-27.709,28.424-27.709h.2V448.9h-.227c-19.606,0-35.551,15.237-35.551,34.843a35.491,35.491,0,0,0,12.178,26.76l5.05-5.057a28.357,28.357,0,0,1-10.074-21.684Z" transform="translate(-10.788 -60.655)" fill="#dd4cbb"/>
    <path id="Path_538" data-name="Path 538" d="M352.775,448.9v7.134a28.424,28.424,0,1,1-18.544,50.1l-5.05,5.05A35.538,35.538,0,1,0,352.775,448.9Z" transform="translate(-10.788 -60.655)" fill="#dd4cbb" opacity="0.5"/>
    <path id="Path_539" data-name="Path 539" d="M585.843,455.7c15.672,0,27.709,12.746,27.709,28.417v.227h7.128v-.227c0-19.6-15.237-35.551-34.843-35.551a35.464,35.464,0,0,0-26.72,12.178l5.05,5.057a28.357,28.357,0,0,1,21.677-10.1Z" transform="translate(-10.788 -60.655)" fill="#dd4cbb" opacity="0.5"/>
    <path id="Path_540" data-name="Path 540" d="M620.687,485.061h-7.128a28.424,28.424,0,1,1-50.1-18.551l-5.05-5.05a35.545,35.545,0,1,0,62.305,23.6Z" transform="translate(-10.788 -60.655)" fill="#dd4cbb"/>
    <path id="Path_541" data-name="Path 541" d="M482.536,451.019l-1.416,7.094c10.434,4.215,17.1,14.442,17.1,26.366a28.424,28.424,0,1,1-39.813-26.052l-3.193-6.38a35.551,35.551,0,1,0,50.141,32.412C505.355,469.1,496.243,455.963,482.536,451.019Z" transform="translate(-10.788 -60.655)" fill="#dd4cbb" opacity="0.5"/>
    <path id="Path_542" data-name="Path 542" d="M470.692,455.642a24.718,24.718,0,0,1,9.893,2.057L482,450.605a31.4,31.4,0,0,0-11.309-2.1,35.324,35.324,0,0,0-14.583,3.14l3.186,6.386a28.218,28.218,0,0,1,11.4-2.391Z" transform="translate(-10.788 -60.655)" fill="#dd4cbb"/>
    <path id="Path_585" data-name="Path 585" d="M19.927,516.33l-.668-.154Z" transform="translate(-10.788 -60.655)" opacity="0.1"/>
    <path id="Path_587" data-name="Path 587" d="M20.368,516.417l-.327-.047.361.067Z" transform="translate(-10.788 -60.655)" opacity="0.1"/>
    <path id="Path_588" data-name="Path 588" d="M10.808,512.6Z" transform="translate(-10.788 -60.655)" opacity="0.1"/>
    <path id="Path_589" data-name="Path 589" d="M10.822,512.61Z" transform="translate(-10.788 -60.655)" opacity="0.1"/>
    <path id="Path_590" data-name="Path 590" d="M20.04,516.371h0Z" transform="translate(-10.788 -60.655)" opacity="0.1"/>
  </g>
</svg>
